HIERARCHY
ROOT Hips
{
	OFFSET -0.001795 -0.223333 0.028219
	CHANNELS 6 Xposition Yposition Zposition Zrotation Yrotation Xrotation 
	JOINT LeftUpLeg
	{
		OFFSET 0.069520 -0.091406 -0.006815
		CHANNELS 3 Zrotation Yrotation Xrotation
		JOINT LeftLeg
		{
			OFFSET 0.034277 -0.375199 -0.004496
			CHANNELS 3 Zrotation Yrotation Xrotation
			JOINT LeftFoot
			{
				OFFSET -0.013596 -0.397961 -0.043693
				CHANNELS 3 Zrotation Yrotation Xrotation
				JOINT LeftToe
				{
					OFFSET 0.026358 -0.055791 0.119288
					CHANNELS 3 Zrotation Yrotation Xrotation
					End Site
					{
						OFFSET 0.000000 0.000000 0.000000
					}
				}
			}
		}
	}
	JOINT RightUpLeg
	{
		OFFSET -0.067670 -0.090522 -0.004320
		CHANNELS 3 Zrotation Yrotation Xrotation
		JOINT RightLeg
		{
			OFFSET -0.038290 -0.382569 -0.008850
			CHANNELS 3 Zrotation Yrotation Xrotation
			JOINT RightFoot
			{
				OFFSET 0.015774 -0.398415 -0.042312
				CHANNELS 3 Zrotation Yrotation Xrotation
				JOINT RightToe
				{
					OFFSET -0.025372 -0.048144 0.123348
					CHANNELS 3 Zrotation Yrotation Xrotation
					End Site
					{
						OFFSET 0.000000 0.000000 0.000000
					}
				}
			}
		}
	}
	JOINT Spine
	{
		OFFSET -0.002533 0.108963 -0.026696
		CHANNELS 3 Zrotation Yrotation Xrotation
		JOINT Spine1
		{
			OFFSET 0.005487 0.135180 0.001092
			CHANNELS 3 Zrotation Yrotation Xrotation
			JOINT Spine2
			{
				OFFSET 0.001457 0.052922 0.025425
				CHANNELS 3 Zrotation Yrotation Xrotation
				JOINT Neck
				{
					OFFSET -0.002778 0.213870 -0.042857
					CHANNELS 3 Zrotation Yrotation Xrotation
					JOINT Head
					{
						OFFSET 0.005152 0.064970 0.051349
						CHANNELS 3 Zrotation Yrotation Xrotation
						End Site
						{
							OFFSET 0.000000 0.000000 0.000000
						}
					}
				}
				JOINT LeftShoulder
				{
					OFFSET 0.078845 0.121749 -0.034090
					CHANNELS 3 Zrotation Yrotation Xrotation
					JOINT LeftArm
					{
						OFFSET 0.090977 0.030469 -0.008868
						CHANNELS 3 Zrotation Yrotation Xrotation
						JOINT LeftForeArm
						{
							OFFSET 0.259612 -0.012772 -0.027456
							CHANNELS 3 Zrotation Yrotation Xrotation
							JOINT LeftHand
							{
								OFFSET 0.249234 0.008986 -0.001171
								CHANNELS 3 Zrotation Yrotation Xrotation
								End Site
								{
									OFFSET 0.000000 0.000000 0.000000
								}
							}
						}
					}
				}
				JOINT RightShoulder
				{
					OFFSET -0.081759 0.118833 -0.038615
					CHANNELS 3 Zrotation Yrotation Xrotation
					JOINT RightArm
					{
						OFFSET -0.096012 0.032551 -0.009143
						CHANNELS 3 Zrotation Yrotation Xrotation
						JOINT RightForeArm
						{
							OFFSET -0.253742 -0.013329 -0.021401
							CHANNELS 3 Zrotation Yrotation Xrotation
							JOINT RightHand
							{
								OFFSET -0.255298 0.007772 -0.005559
								CHANNELS 3 Zrotation Yrotation Xrotation
								End Site
								{
									OFFSET 0.000000 0.000000 0.000000
								}
							}
						}
					}
				}
			}
		}
	}
}
MOTION
Frames: 15
Frame Time: 0.050000
0.000000 0.906734 0.000000 0.559193 -15.436371 -3.269065 -2.116858 -1.903804 -23.241315 -0.923423 0.088844 7.309708 5.457507 11.666314 12.665094 0.000000 0.000000 0.000000 2.635946 -1.419699 16.437797 -0.173706 0.603984 10.056930 -3.372540 -3.861659 -6.585232 0.000000 0.000000 0.000000 -3.248521 -0.007000 7.086295 -1.616614 0.553644 -6.786041 3.953647 9.852072 17.055339 3.049442 -0.216920 -21.603886 0.000000 0.000000 0.000000 -15.138816 0.371086 -1.375666 -59.654495 -1.605469 -7.624474 -40.437615 -61.658922 28.812065 0.000000 0.000000 0.000000 6.627577 11.455386 4.261953 60.881465 22.396280 4.684938 32.500763 61.930977 23.233952 0.000000 0.000000 0.000000 
-0.004683 0.903735 0.047171 0.146598 -15.350606 -2.544495 -1.958886 -1.812799 -21.980616 -2.457541 0.454862 9.239666 6.793460 13.887632 8.457321 0.000000 0.000000 0.000000 3.088622 -1.592706 17.766991 -1.040675 0.973632 12.668255 -2.482518 -2.245872 -5.552319 0.000000 0.000000 0.000000 -3.449757 -0.000143 4.250350 -1.486782 0.505255 -6.722974 4.602569 9.179727 19.178804 1.231746 0.888654 -23.834286 0.000000 0.000000 0.000000 -16.548620 1.712703 -1.986146 -59.025133 -1.558241 -7.760604 -43.729376 -60.747553 30.950416 0.000000 0.000000 0.000000 4.610625 11.463563 4.124146 62.724501 21.375422 4.102107 41.800283 62.163947 29.423836 0.000000 0.000000 0.000000 
-0.008225 0.907531 0.096645 1.092265 -13.933838 -3.055326 -4.762053 -2.355062 -20.719404 -1.797205 0.384079 13.931161 6.861782 14.197131 6.568171 0.000000 0.000000 0.000000 0.158315 -1.050992 16.663457 0.921370 1.131356 19.763056 -2.728374 -3.633606 -4.793306 0.000000 0.000000 0.000000 -3.793446 0.007373 3.602722 -1.769450 0.637697 -7.249832 3.554930 8.993839 19.703143 1.780967 0.547603 -22.137716 0.000000 0.000000 0.000000 -16.187790 1.426043 -1.926141 -57.305200 -3.043966 -6.937722 -38.367221 -59.305365 26.428163 0.000000 0.000000 0.000000 6.868130 9.695742 3.595591 60.896958 20.715287 3.457067 42.127235 59.405574 28.287962 0.000000 0.000000 0.000000 
-0.010688 0.913882 0.145659 1.768166 -14.302458 -3.715965 -6.491515 -2.369195 -17.607695 -1.811175 0.451531 15.149721 6.041975 12.740590 4.826978 0.000000 0.000000 0.000000 -2.285101 -0.465094 12.282099 3.225506 1.674769 32.282891 -0.671162 -3.528150 3.225837 0.000000 0.000000 0.000000 -4.693389 0.032463 2.253077 -1.571200 0.595112 -4.900332 2.985181 8.556912 19.013773 1.719601 0.335788 -19.751790 0.000000 0.000000 0.000000 -16.573476 1.809524 -2.073631 -56.698512 -3.587572 -6.559719 -40.380640 -60.612803 28.542256 0.000000 0.000000 0.000000 5.114840 10.788776 3.899099 61.225121 18.893454 2.553821 44.243465 60.520028 30.045289 0.000000 0.000000 0.000000 
-0.013393 0.919646 0.190274 1.974045 -13.165077 -4.204175 -7.741396 -2.170982 -14.154277 -1.726422 0.400625 15.441919 5.243793 11.268726 3.148588 0.000000 0.000000 0.000000 -4.481737 0.001879 4.932576 6.605678 1.539454 46.712658 -0.352843 -6.823325 12.285437 0.000000 0.000000 0.000000 -4.969373 0.037163 3.178629 -1.379886 0.518847 -5.374485 2.295062 6.257838 18.968864 1.815555 0.025796 -19.742419 0.000000 0.000000 0.000000 -16.620229 0.750638 -1.164935 -55.474536 -4.916256 -5.867106 -39.822212 -61.687368 29.249771 0.000000 0.000000 0.000000 6.009570 9.714543 3.353800 60.706344 16.767316 1.170509 45.434656 59.636898 29.709992 0.000000 0.000000 0.000000 
-0.017179 0.924520 0.229351 1.413293 -12.241116 -4.917104 -7.780200 -1.638270 -10.048950 -1.139802 0.171629 13.982090 4.309083 9.326712 1.099820 0.000000 0.000000 0.000000 -5.071079 0.329221 -2.550050 9.038096 0.774561 56.311788 -2.862143 -11.645589 14.288022 0.000000 0.000000 0.000000 -4.146450 -0.005582 4.255811 -1.012729 0.386365 -4.419440 1.088870 3.671974 18.462789 1.157530 0.130837 -19.268015 0.000000 0.000000 0.000000 -16.737467 -0.335495 -0.199747 -53.929854 -6.866209 -4.914721 -37.607816 -63.749615 29.419450 0.000000 0.000000 0.000000 7.139393 9.973410 3.257939 58.651637 14.579392 -0.154544 44.423354 59.751502 28.371742 0.000000 0.000000 0.000000 
-0.022153 0.931737 0.264843 0.427997 -10.993933 -5.256000 -7.180614 -0.922679 -5.414790 -0.801984 0.022300 12.160658 3.801200 8.183227 -0.016852 0.000000 0.000000 0.000000 -4.360016 0.781018 -9.801421 10.728352 -0.586449 59.763898 -5.517901 -15.573344 10.680079 0.000000 0.000000 0.000000 -3.095319 -0.063263 5.635101 -0.296804 0.089964 -4.813999 0.014625 1.089131 18.809857 0.967606 -0.014079 -19.323323 0.000000 0.000000 0.000000 -16.630278 -1.103432 0.593274 -53.293049 -9.442026 -3.827778 -31.197734 -64.152871 25.779538 0.000000 0.000000 0.000000 7.656889 9.333283 2.789844 58.084778 12.016821 -1.579129 45.048891 57.210750 26.711263 0.000000 0.000000 0.000000 
-0.027716 0.938647 0.298515 -0.471875 -9.726201 -5.488147 -6.641266 -0.325461 -1.632802 0.185207 -0.240480 10.704838 3.444312 7.318729 -0.703925 0.000000 0.000000 0.000000 -3.489820 1.324894 -15.602172 10.872240 -1.318157 55.805659 -7.613590 -19.220201 8.119356 0.000000 0.000000 0.000000 -2.409620 -0.117907 7.112673 0.467514 -0.222993 -4.975153 -0.340057 -1.009278 18.470665 0.457319 0.124384 -19.363900 0.000000 0.000000 0.000000 -16.658294 -2.576094 1.638803 -52.941044 -13.078759 -2.240103 -20.413459 -63.692320 18.751313 0.000000 0.000000 0.000000 8.450228 8.978303 2.445111 56.666402 10.263954 -2.381363 40.752802 54.331928 22.247354 0.000000 0.000000 0.000000 
-0.033702 0.941749 0.332408 -1.277074 -7.861316 -5.525826 -5.702964 0.135145 1.291832 0.575753 -0.356504 10.243129 2.754289 5.509269 -1.828491 0.000000 0.000000 0.000000 -2.744941 1.861047 -20.395607 9.182964 -1.112469 47.151704 -8.552173 -20.971247 7.280608 0.000000 0.000000 0.000000 -1.831659 -0.170445 7.736002 0.885105 -0.358580 -5.796712 -0.949150 -3.443683 19.248314 0.334521 0.023240 -20.235271 0.000000 0.000000 0.000000 -16.259322 -2.628947 1.943125 -53.999826 -16.075017 -0.891175 -12.577518 -63.552430 14.131073 0.000000 0.000000 0.000000 8.737942 8.346854 2.008685 55.712456 6.860410 -4.024640 40.104146 50.743822 19.823893 0.000000 0.000000 0.000000 
-0.040112 0.941207 0.367851 -1.482633 -6.391568 -5.770877 -5.538153 0.608931 4.462375 1.668382 -0.602685 9.823608 2.398987 3.979018 -4.101408 0.000000 0.000000 0.000000 -2.798870 1.996219 -22.283762 6.978384 -0.599959 35.175474 -8.179449 -20.277915 8.116094 0.000000 0.000000 0.000000 -2.089997 -0.171174 8.219539 1.458486 -0.583953 -5.587049 -1.057298 -4.193777 19.170749 0.149169 0.205161 -21.561185 0.000000 0.000000 0.000000 -15.636838 -3.454079 2.307087 -53.797624 -19.155258 0.577826 -5.800074 -62.928467 9.682769 0.000000 0.000000 0.000000 8.811099 7.697429 1.752798 56.412264 4.729992 -5.078314 35.897705 46.863204 16.208872 0.000000 0.000000 0.000000 
-0.046820 0.936339 0.405266 -1.766139 -4.081024 -5.791852 -4.979443 1.010806 7.400179 1.955114 -0.711341 10.279558 2.109683 2.036965 -6.853038 0.000000 0.000000 0.000000 -2.674326 1.940114 -22.457033 5.191611 -0.427371 21.710008 -8.399189 -20.622295 9.911874 0.000000 0.000000 0.000000 -2.454319 -0.165021 8.312120 2.184419 -0.869319 -5.302242 -0.959642 -5.108991 19.171521 -0.137243 0.449840 -22.188514 0.000000 0.000000 0.000000 -15.583091 -4.407490 2.709431 -53.370317 -21.910831 1.861462 0.726350 -61.862507 5.387407 0.000000 0.000000 0.000000 9.171104 7.282657 1.602702 55.880718 2.790636 -5.878064 32.894128 43.874654 13.853961 0.000000 0.000000 0.000000 
-0.053964 0.930046 0.444763 -1.473962 -2.018799 -5.839319 -4.656511 1.322745 9.899972 2.071829 -0.824476 11.557244 1.825985 0.151721 -8.729946 0.000000 0.000000 0.000000 -3.785845 1.606946 -21.955020 4.442330 -0.431857 9.546961 -8.485046 -20.646789 11.696689 0.000000 0.000000 0.000000 -2.994898 -0.147993 8.678368 2.593008 -0.991061 -5.780014 -0.690797 -6.089861 19.712545 -1.193390 1.126296 -23.740270 0.000000 0.000000 0.000000 -15.278304 -4.775549 2.867520 -54.227448 -24.202766 3.055321 3.948403 -60.881590 3.424782 0.000000 0.000000 0.000000 8.744056 8.149685 2.028774 57.302042 2.457878 -6.285395 27.797478 42.193027 11.357485 0.000000 0.000000 0.000000 
-0.061935 0.923238 0.486593 -1.200922 -1.528314 -5.146644 -4.374664 1.647231 12.450013 2.561275 -0.886127 10.620534 1.388078 -1.387508 -9.281756 0.000000 0.000000 0.000000 -3.911242 1.598317 -22.354202 4.245407 -0.437925 2.308796 -8.239664 -20.208277 12.734933 0.000000 0.000000 0.000000 -3.079108 -0.128581 7.826121 3.147146 -1.255956 -5.093083 -0.647158 -6.146759 19.197347 -1.739150 1.476617 -23.661149 0.000000 0.000000 0.000000 -15.428527 -3.879917 2.367791 -54.694351 -24.545416 3.342334 2.716781 -59.297822 3.931802 0.000000 0.000000 0.000000 10.249778 9.487600 2.501896 57.581210 3.616283 -5.614431 20.656951 39.651854 8.095451 0.000000 0.000000 0.000000 
-0.071257 0.916730 0.531693 -0.596975 -0.137760 -4.642688 -3.641953 1.861551 14.980594 2.138394 -0.823133 10.810920 1.610108 -1.613061 -10.324439 0.000000 0.000000 0.000000 -4.154615 1.559149 -23.343768 4.119631 -0.435059 2.446027 -8.639270 -20.739672 14.577058 0.000000 0.000000 0.000000 -3.435277 -0.111197 8.030525 4.024648 -1.633500 -4.859207 -0.788819 -5.941965 18.203317 -1.446801 1.441316 -23.190969 0.000000 0.000000 0.000000 -16.659226 -4.651215 2.599651 -53.718917 -24.113083 3.009611 1.874290 -56.699742 3.762311 0.000000 0.000000 0.000000 11.858743 11.063621 3.261140 57.455434 5.172209 -4.664421 12.910459 37.566948 5.203420 0.000000 0.000000 0.000000 
-0.082125 0.912652 0.580153 -0.441803 0.563788 -4.232989 -2.780563 1.864387 16.171424 2.026084 -0.923155 12.876901 1.742095 -0.537452 -8.923823 0.000000 0.000000 0.000000 -3.675594 1.631792 -23.514933 4.116902 -0.433021 5.645419 -8.140777 -19.841599 17.577379 0.000000 0.000000 0.000000 -2.938801 -0.136638 7.672561 4.222932 -1.805058 -3.513941 -0.291261 -5.619972 16.265692 -1.357120 1.448772 -21.479485 0.000000 0.000000 0.000000 -17.475540 -4.105148 2.120913 -54.129709 -22.553024 2.476099 -0.416184 -51.138201 4.059556 0.000000 0.000000 0.000000 13.931718 11.787732 3.615064 56.380348 7.293038 -3.295521 7.218675 35.548121 3.184487 0.000000 0.000000 0.000000 
